PathFileType	4	(X/Y/Z)	Kaydara																																																																																																																									
DataRate	CameraRate	NumFrames	NumMarkers	Units	OrigDataRate	OrigDataStartFrame	OrigNumFrames																																																																																																																					
30	30	7	41	mm	30	89	142																																																																																																																					
Frame#	Time	PAIB_LFHD			PAIB_RFHD			PAIB_LBHD			PAIB_RBHD			PAIB_LFTShould			PAIB_RFTShould			PAIB_LRRShould			PAIB_RRRShould			PAIB_T10			PAIB_STRN			PAIB_TRUN			PAIB_LSHO			PAIB_LUPA			PAIB_LELB			PAIB_LFRM			PAIB_LWRA			PAIB_LWRB			PAIB_LFIN			PAIB_RSHO			PAIB_RUPA			PAIB_RELB			PAIB_RFRM			PAIB_RWRA			PAIB_RWRB			PAIB_RFIN			PAIB_LFWT			PAIB_RFWT			PAIB_LBWT			PAIB_RBWT			PAIB_LTHI			PAIB_LKNE			PAIB_LSHN			PAIB_LANK			PAIB_LHEE			PAIB_LTOE			PAIB_RTHI			PAIB_RKNE			PAIB_RSHN			PAIB_RANK			PAIB_RHEE			PAIB_RTOE		
		X1	Y1	Z1	X2	Y2	Z2	X3	Y3	Z3	X4	Y4	Z4	X5	Y5	Z5	X6	Y6	Z6	X7	Y7	Z7	X8	Y8	Z8	X9	Y9	Z9	X10	Y10	Z10	X11	Y11	Z11	X12	Y12	Z12	X13	Y13	Z13	X14	Y14	Z14	X15	Y15	Z15	X16	Y16	Z16	X17	Y17	Z17	X18	Y18	Z18	X19	Y19	Z19	X20	Y20	Z20	X21	Y21	Z21	X22	Y22	Z22	X23	Y23	Z23	X24	Y24	Z24	X25	Y25	Z25	X26	Y26	Z26	X27	Y27	Z27	X28	Y28	Z28	X29	Y29	Z29	X30	Y30	Z30	X31	Y31	Z31	X32	Y32	Z32	X33	Y33	Z33	X34	Y34	Z34	X35	Y35	Z35	X36	Y36	Z36	X37	Y37	Z37	X38	Y38	Z38	X39	Y39	Z39	X40	Y40	Z40	X41	Y41	Z41
																																																																																																																												
89	2.943	275.50499	1544.44351	-743.61404	89.60774	1537.66083	-748.80074	286.37861	1542.19254	-872.55409	82.68128	1543.77197	-864.10858	265.86231	1294.42001	-845.6163	143.3849	1286.54694	-847.60406	263.92553	1416.91711	-943.72208	114.50414	1404.35852	-939.49486	187.97995	1311.08719	-1089.96452	216.47394	1216.75278	-843.07747	217.88591	1116.12122	-870.3933	388.72341	1353.19641	-915.93491	493.81084	1226.09444	-1070.41443	518.36769	1200.24231	-1151.54121	563.57254	1084.43703	-1183.23685	522.5359	934.12727	-1188.64998	573.31093	965.58243	-1241.34315	577.12746	895.50232	-1210.39726	21.96007	1316.82617	-887.44789	-89.26818	1186.89911	-931.3652	-144.66325	1082.83546	-929.19914	-105.39472	959.52637	-860.49637	24.13845	916.6507	-796.20422	-48.81274	871.18614	-786.46141	0.37907	882.12128	-728.28064	296.29829	899.07585	-985.82092	62.01525	908.31871	-1005.97794	265.58563	950.52628	-1206.83388	127.8932	987.73689	-1208.27293	312.01471	674.91402	-1091.28212	346.20853	516.89548	-841.26503	319.51363	323.69465	-803.25935	313.65265	125.00876	-866.54778	249.45429	110.019	-903.09929	321.068	102.89059	-697.96967	61.146	717.00157	-1270.64339	53.4298	457.60849	-1254.55132	118.20796	274.99382	-1291.91299	105.13195	117.67561	-1445.41458	170.99751	125.93631	-1474.64035	88.57965	69.8408	-1263.40248
90	2.977	288.45362	1535.73532	-689.48898	102.41191	1532.25342	-691.68694	297.26692	1532.1167	-818.56949	93.83009	1537.33093	-806.88896	276.17645	1283.14041	-790.35316	152.17889	1277.81418	-783.90839	268.7936	1405.28076	-889.30809	119.98902	1395.44815	-876.56677	184.22768	1296.64459	-1028.17421	225.97788	1206.27144	-783.12141	225.41693	1105.09857	-808.34007	394.43745	1345.65399	-867.85301	500.2813	1232.12547	-1026.03485	523.90991	1209.06067	-1109.18549	577.47833	1094.93889	-1137.23106	548.53252	941.51871	-1132.77802	594.37752	974.49692	-1189.58694	604.07497	906.07689	-1157.05757	31.85528	1310.78857	-816.67778	-84.69249	1183.90488	-850.94948	-142.33698	1082.09213	-841.50185	-93.74298	965.68771	-767.13028	41.41176	933.3596	-708.36617	-28.65256	885.56633	-691.39839	23.29353	902.37114	-637.41146	293.13364	885.89638	-915.9864	59.182	890.20096	-943.07396	267.39893	935.63606	-1137.44102	130.84602	971.56197	-1142.10991	312.99532	658.79433	-1021.9297	346.50436	507.77962	-762.82982	326.889	328.17501	-695.429	331.58447	122.42389	-718.06206	269.93265	97.63206	-755.29495	326.36314	132.94496	-546.47564	68.67628	713.45383	-1218.06534	52.87809	455.77705	-1223.1205	116.14496	273.83642	-1272.41203	104.24146	130.00534	-1439.12064	170.26085	140.63168	-1466.37589	87.95211	69.9795	-1263.34976
91	3.01	302.89667	1529.85001	-629.81335	116.79945	1527.83844	-630.09041	310.50592	1525.18555	-759.26773	106.9777	1532.20444	-745.23926	285.73629	1277.23206	-727.1331	162.3237	1273.00919	-716.53038	275.99476	1395.57556	-829.06914	129.23227	1389.83185	-810.78049	185.33192	1284.84039	-961.70746	235.25545	1200.84084	-716.78375	232.188	1099.16245	-739.47739	400.28847	1339.03229	-810.67886	508.61748	1238.08189	-971.96587	531.7915	1211.93459	-1053.35594	593.18703	1099.61792	-1075.81406	575.29533	945.4068	-1058.98178	617.02869	976.74301	-1120.07889	632.82173	911.09894	-1084.80019	43.48327	1310.12421	-745.31097	-78.65196	1185.51147	-775.08118	-139.01985	1085.69069	-763.21983	-83.91056	973.12057	-687.11761	55.56572	947.80487	-632.51015	-12.16448	897.79198	-611.81313	40.84387	918.09532	-560.18505	291.3056	878.09509	-843.38188	57.32129	874.69269	-875.11024	274.4158	925.35225	-1064.07028	135.08408	958.09372	-1072.18323	319.13034	649.34006	-947.91992	344.80309	500.86983	-687.16156	326.49467	323.8216	-615.88818	338.27568	117.54686	-629.47548	279.39316	88.96786	-668.535	327.36549	138.04212	-459.12102	76.56644	709.26376	-1156.02943	52.09575	452.56149	-1179.9292	112.70929	276.2822	-1246.57883	101.27498	150.54451	-1427.57904	167.65087	164.4318	-1452.21313	86.76744	69.49275	-1262.87796
92	3.043	318.19044	1526.81671	-566.35376	132.48576	1527.25876	-563.40504	323.64594	1520.86136	-695.7132	120.55904	1530.61707	-678.48465	296.4242	1272.88963	-659.7789	173.90881	1271.18233	-645.88196	285.65592	1389.88098	-763.6084	138.93483	1387.108	-742.57317	190.71234	1277.35847	-892.01591	245.0437	1197.69897	-646.25069	239.8365	1095.62637	-666.62079	407.39952	1333.22098	-744.22729	518.09303	1231.45142	-900.62302	544.03118	1203.61053	-982.5515	609.75815	1093.15063	-998.01559	598.3646	939.77547	-971.40762	639.16759	969.52835	-1034.11415	659.09676	907.39143	-996.16676	52.50192	1309.35318	-673.32489	-72.97538	1187.47154	-704.60274	-134.58093	1088.89763	-693.87291	-76.82835	977.46696	-618.80798	63.89709	952.63351	-568.50815	-3.22266	902.62856	-545.48351	51.51233	922.79861	-495.48828	294.67787	875.34172	-769.70314	60.52195	861.83159	-798.85635	276.18219	924.66629	-989.66354	133.96528	950.35919	-995.2607	327.39582	648.98994	-876.33507	347.44949	490.99957	-624.06429	324.72702	307.51049	-561.18202	334.36279	106.94177	-599.50478	274.50369	87.0374	-640.39314	327.22889	90.10177	-421.82964	84.76938	705.60066	-1085.06439	52.10091	453.03844	-1123.82591	110.16259	283.20005	-1208.49602	99.41031	181.35216	-1404.6579	166.21021	198.99931	-1424.62067	85.37989	68.34271	-1263.23647
93	3.077	331.996	1530.71762	-499.35616	146.25295	1532.24884	-494.92832	336.37547	1524.12491	-628.60519	133.4883	1535.21149	-609.94503	303.7113	1274.47594	-588.58704	182.21636	1274.69681	-573.87321	295.67776	1391.77551	-692.96959	148.26182	1391.18423	-670.22408	197.08733	1280.05951	-819.94614	252.06062	1199.50905	-574.94755	245.72594	1097.45148	-594.44462	416.6074	1330.55359	-670.98503	529.63985	1213.78311	-821.0997	555.50652	1186.9136	-900.24857	622.50156	1077.40303	-905.62553	611.95602	926.69907	-871.10641	655.31898	954.57954	-933.43414	675.14908	895.22919	-891.36169	61.73241	1312.60666	-599.92054	-66.32771	1191.9458	-640.69969	-129.16316	1093.54515	-636.93951	-74.80651	976.69838	-566.90022	64.15264	946.2751	-514.26617	-4.72233	896.50429	-496.28593	49.02394	911.16592	-444.06807	304.08695	881.22169	-700.18417	69.84484	859.0287	-721.05034	272.17716	930.90675	-920.64514	127.97252	949.83955	-920.37262	330.55561	653.96385	-812.4556	351.13079	496.99936	-557.01008	326.40285	305.02062	-518.05332	337.26154	108.46613	-580.04391	280.08776	94.19794	-627.67651	320.18909	72.10795	-402.71114	85.82861	698.46962	-1004.83261	54.75586	448.02486	-1038.27835	110.72214	289.98581	-1146.62018	98.29855	220.51622	-1356.08246	164.78559	243.4388	-1369.14276	87.43144	65.12576	-1264.53255
94	3.11	341.38069	1539.18091	-430.76942	155.84086	1542.71744	-427.03194	346.25271	1532.5174	-560.0425	143.46535	1545.74738	-542.08138	308.95731	1281.82526	-520.85949	188.57714	1283.98804	-505.26901	302.66144	1400.4007	-624.40533	154.63368	1402.01813	-600.70484	201.59214	1291.06125	-751.71349	255.64899	1208.09166	-506.40648	248.22872	1106.15433	-525.79903	423.00262	1336.58844	-600.19238	532.43233	1202.07932	-736.46133	560.75989	1167.78175	-816.07071	626.24775	1057.39426	-809.65645	613.45772	910.41092	-763.00545	658.6644	933.5817	-826.11435	677.72507	878.26065	-778.11356	66.8391	1319.52454	-529.97429	-59.54452	1199.38942	-581.58833	-122.2319	1101.28502	-588.61835	-77.64978	974.91837	-528.63251	55.91535	930.57259	-472.93961	-16.30224	883.63716	-464.28055	34.80839	889.92996	-408.28281	314.04627	895.28435	-635.36476	79.8607	866.32103	-647.14081	266.41399	939.43153	-857.67761	123.45414	952.75215	-850.81795	330.07683	663.97003	-756.56013	361.99219	489.22356	-522.0768	330.99705	297.33826	-491.38081	336.65077	108.6071	-573.43616	280.3046	98.60377	-622.93022	320.44285	61.36054	-401.97803	80.35577	678.95958	-914.76532	61.51624	426.79665	-920.65598	121.25668	296.26186	-1054.05907	100.01508	261.06424	-1269.48021	162.86625	290.9704	-1280.87067	96.15529	60.9098	-1224.10339
95	3.143	345.86342	1554.0799	-362.2707	160.29099	1559.04037	-360.15118	351.83151	1548.41019	-491.42647	148.80855	1563.40591	-475.36175	310.3301	1298.02399	-454.18175	188.90469	1302.02774	-440.33291	308.45129	1415.20844	-559.95205	159.44047	1419.5723	-537.63176	207.74197	1305.9166	-686.60446	255.79037	1224.87465	-440.67921	247.43475	1123.12286	-460.75214	428.79826	1346.79138	-533.57285	535.77244	1192.41837	-656.0556	564.18839	1148.49236	-727.94441	622.61219	1035.88577	-711.13937	601.03569	893.74359	-653.47481	648.61481	909.5166	-716.27716	665.04486	859.79134	-661.90865	67.59964	1336.37405	-468.84918	-53.72475	1212.69707	-530.17689	-114.18871	1114.21196	-548.50739	-84.39978	978.53447	-503.08586	40.74304	915.14885	-445.84084	-36.3071	874.78844	-447.31003	10.89177	869.76067	-388.07217	324.10973	911.80061	-572.65671	89.9815	881.43356	-575.79693	262.69196	956.07826	-793.53142	119.9996	962.52899	-782.36794	331.14437	678.85338	-711.1879	365.97599	484.16866	-493.15403	334.26964	290.74232	-477.23717	337.04727	108.5701	-571.32614	280.89609	100.97134	-621.38515	319.9048	58.22925	-399.7205	75.69253	664.29634	-815.98114	67.64447	416.99265	-791.62674	135.80099	303.10139	-935.58067	102.72316	277.99129	-1151.31233	160.2688	317.44093	-1166.74507	138.744	87.20155	-1108.12416
